<?xml version="1.0" encoding="UTF-8" standalone="no"?>
<svg
   width="81"
   height="16"
   version="1.1"
   viewBox="0 0 21.431 4.2333"
   id="svg4"
   sodipodi:docname="restore.svg"
   inkscape:version="1.4.1 (93de688d07, 2025-03-30)"
   xmlns:inkscape="http://www.inkscape.org/namespaces/inkscape"
   xmlns:sodipodi="http://sodipodi.sourceforge.net/DTD/sodipodi-0.dtd"
   xmlns="http://www.w3.org/2000/svg"
   xmlns:svg="http://www.w3.org/2000/svg">
  <defs
     id="defs4">
    <filter
       style="color-interpolation-filters:sRGB;"
       inkscape:label="Color Shift"
       id="filter90"
       x="-0.017856758"
       y="-0.017856758"
       width="1.0357135"
       height="1.0357135">
      <feColorMatrix
         type="hueRotate"
         values="239"
         result="color1"
         id="feColorMatrix89" />
      <feColorMatrix
         type="saturate"
         values="0.768997"
         result="color2"
         id="feColorMatrix90" />
    </filter>
    <filter
       style="color-interpolation-filters:sRGB;"
       inkscape:label="Color Shift"
       id="filter92"
       x="-0.017856758"
       y="-0.017856758"
       width="1.0357135"
       height="1.0357135">
      <feColorMatrix
         type="hueRotate"
         values="239"
         result="color1"
         id="feColorMatrix91" />
      <feColorMatrix
         type="saturate"
         values="0.768997"
         result="color2"
         id="feColorMatrix92" />
    </filter>
    <filter
       style="color-interpolation-filters:sRGB;"
       inkscape:label="Color Shift"
       id="filter94"
       x="-0.017856758"
       y="-0.017856758"
       width="1.0357135"
       height="1.0357135">
      <feColorMatrix
         type="hueRotate"
         values="239"
         result="color1"
         id="feColorMatrix93" />
      <feColorMatrix
         type="saturate"
         values="0.768997"
         result="color2"
         id="feColorMatrix94" />
    </filter>
  </defs>
  <sodipodi:namedview
     id="namedview4"
     pagecolor="#ffffff"
     bordercolor="#000000"
     borderopacity="0.25"
     inkscape:showpageshadow="2"
     inkscape:pageopacity="0.0"
     inkscape:pagecheckerboard="0"
     inkscape:deskcolor="#d1d1d1"
     inkscape:zoom="11.851852"
     inkscape:cx="40.5"
     inkscape:cy="8.015625"
     inkscape:window-width="1600"
     inkscape:window-height="829"
     inkscape:window-x="0"
     inkscape:window-y="0"
     inkscape:window-maximized="1"
     inkscape:current-layer="svg4" />
  <path
     id="inactive-center"
     d="m19.381 0.26459c-1.0229 0-1.8521 0.8292-1.8521 1.8521s0.8292 1.8521 1.8521 1.8521 1.8521-0.8292 1.8521-1.8521-0.8292-1.8521-1.8521-1.8521z"
     fill="#000000"
     opacity=".3"
     stroke-width=".26458" />
  <path
     id="deactivated-center"
     d="m15.065 0.26459c-1.0229 0-1.8521 0.8292-1.8521 1.8521s0.8292 1.8521 1.8521 1.8521 1.8521-0.8292 1.8521-1.8521-0.8292-1.8521-1.8521-1.8521z"
     fill="#000000"
     opacity=".3"
     stroke-width=".26458" />
  <path
     id="active-center"
     d="m2.1167 0.26458c-1.0229 0-1.8521 0.8292-1.8521 1.8521s0.8292 1.8521 1.8521 1.8521 1.8521-0.8292 1.8521-1.8521-0.8292-1.8521-1.8521-1.8521z"
     fill="#367bf1"
     stroke="#316fd8"
     stroke-width=".13229"
     style="filter:url(#filter90);fill:#af65f5;fill-opacity:1" />
  <g
     id="pressed-center"
     transform="translate(12.819 6.2177)">
    <path
       d="m-6.3861-5.9531c-1.0229 0-1.8521 0.8292-1.8521 1.8521s0.8292 1.8521 1.8521 1.8521 1.8521-0.8292 1.8521-1.8521-0.8292-1.8521-1.8521-1.8521z"
       fill="#367bf1"
       stroke="#316fd8"
       stroke-width=".13229"
       id="path1"
       style="filter:url(#filter92);fill:#af65f5;fill-opacity:1" />
    <path
       d="m-6.7036-4.8948h0.89474c0.11914 0 0.21596 0.097491 0.21663 0.21664v0.89474zm0.63696 1.5893h-0.89829c-0.11916 0-0.21663-0.097478-0.21663-0.21663v-0.89829l1.1149 1.1149"
       fill-rule="evenodd"
       opacity=".5"
       stroke-width=".26458"
       id="path2" />
  </g>
  <g
     id="hover-center"
     transform="translate(17.135 6.2177)">
    <path
       d="m-6.3861-5.9531c-1.0229 0-1.8521 0.8292-1.8521 1.8521s0.8292 1.8521 1.8521 1.8521 1.8521-0.8292 1.8521-1.8521-0.8292-1.8521-1.8521-1.8521z"
       fill="#367bf1"
       stroke="#316fd8"
       stroke-width=".13229"
       id="path3"
       style="filter:url(#filter94);fill:#af65f5;fill-opacity:1" />
    <path
       d="m-6.7036-4.8948h0.89474c0.11914 0 0.21596 0.097491 0.21663 0.21664v0.89474zm0.63696 1.5893h-0.89829c-0.11916 0-0.21663-0.097478-0.21663-0.21663v-0.89829l1.1149 1.1149"
       fill-rule="evenodd"
       opacity=".5"
       stroke-width=".26458"
       id="path4" />
  </g>
</svg>
