<?xml version="1.0" encoding="UTF-8" standalone="no"?>
<svg
   width="81"
   height="16"
   version="1.1"
   id="svg4"
   sodipodi:docname="close.svg"
   inkscape:version="1.4.1 (93de688d07, 2025-03-30)"
   xmlns:inkscape="http://www.inkscape.org/namespaces/inkscape"
   xmlns:sodipodi="http://sodipodi.sourceforge.net/DTD/sodipodi-0.dtd"
   xmlns="http://www.w3.org/2000/svg"
   xmlns:svg="http://www.w3.org/2000/svg">
  <defs
     id="defs4">
    <filter
       style="color-interpolation-filters:sRGB;"
       inkscape:label="Lightness-Contrast"
       id="filter16"
       x="-0.017857143"
       y="-0.017857143"
       width="1.0357143"
       height="1.0357143">
      <feColorMatrix
         values="0.945338 0 0 0.284607 0.0273312 0 0.945338 0 0.284607 0.0273312 0 0 0.945338 0.284607 0.0273312 0 0 0 1 0"
         id="feColorMatrix16" />
    </filter>
    <filter
       style="color-interpolation-filters:sRGB;"
       inkscape:label="Lightness-Contrast"
       id="filter17"
       x="-0.017857143"
       y="-0.017857143"
       width="1.0357143"
       height="1.0357143">
      <feColorMatrix
         values="0.945338 0 0 0.284607 0.0273312 0 0.945338 0 0.284607 0.0273312 0 0 0.945338 0.284607 0.0273312 0 0 0 1 0"
         id="feColorMatrix17" />
    </filter>
    <filter
       style="color-interpolation-filters:sRGB;"
       inkscape:label="Lightness-Contrast"
       id="filter18"
       x="-0.017857143"
       y="-0.017857143"
       width="1.0357143"
       height="1.0357143">
      <feColorMatrix
         values="0.945338 0 0 0.284607 0.0273312 0 0.945338 0 0.284607 0.0273312 0 0 0.945338 0.284607 0.0273312 0 0 0 1 0"
         id="feColorMatrix18" />
    </filter>
  </defs>
  <sodipodi:namedview
     id="namedview4"
     pagecolor="#ffffff"
     bordercolor="#000000"
     borderopacity="0.25"
     inkscape:showpageshadow="2"
     inkscape:pageopacity="0.0"
     inkscape:pagecheckerboard="0"
     inkscape:deskcolor="#d1d1d1"
     inkscape:zoom="11.851852"
     inkscape:cx="40.5"
     inkscape:cy="8.015625"
     inkscape:window-width="1600"
     inkscape:window-height="829"
     inkscape:window-x="0"
     inkscape:window-y="0"
     inkscape:window-maximized="1"
     inkscape:current-layer="svg4" />
  <path
     id="active-center"
     d="m8 1c-3.866 0-7 3.134-7 7s3.134 7 7 7 7-3.134 7-7-3.134-7-7-7z"
     fill="#d41919"
     stroke="#bf1717"
     stroke-width=".5"
     style="filter:url(#filter18)" />
  <g
     id="hover-center"
     transform="translate(76.896 -6.3051)">
    <path
       d="m-36.271 7.3051c-3.866 0-7 3.134-7 7s3.134 7 7 7 7-3.134 7-7-3.134-7-7-7z"
       fill="#d41919"
       stroke="#bf1717"
       stroke-width=".5"
       id="path1"
       style="filter:url(#filter16)" />
    <path
       d="m-39.271 11.225h0.75c8e-3 -9e-5 0.0156-3.5e-4 0.0234 0 0.19122 8e-3 0.3824 0.0964 0.51563 0.23437l1.7109 1.7109 1.7344-1.7109c0.19922-0.17287 0.335-0.22912 0.51562-0.23437h0.75v0.75c0 0.21485-0.0257 0.41298-0.1875 0.5625l-1.7109 1.7109 1.6875 1.6875c0.14114 0.14113 0.21093 0.34009 0.21093 0.53907v0.75h-0.75c-0.19897-1e-5 -0.39793-0.0698-0.53906-0.21094l-1.7109-1.7109-1.7109 1.7109c-0.14113 0.14114-0.3401 0.21094-0.53907 0.21094h-0.75v-0.75c0-0.19897 0.0698-0.39794 0.21094-0.53907l1.7109-1.6875-1.7109-1.7109c-0.15805-0.14598-0.22737-0.35194-0.21094-0.5625v-0.75z"
       color="#bebebe"
       enable-background="new"
       opacity=".5"
       style="text-decoration-line:none;text-indent:0;text-transform:none"
       id="path2" />
  </g>
  <path
     id="inactive-center"
     d="m73.25 1c-3.866 0-7 3.134-7 7s3.134 7 7 7 7-3.134 7-7-3.134-7-7-7z"
     fill="#000000"
     opacity=".3" />
  <g
     id="pressed-center"
     transform="translate(74.346 -.88136)">
    <path
       d="m-50.034 1.8814c-3.866 0-7 3.134-7 7s3.134 7 7 7 7-3.134 7-7-3.134-7-7-7z"
       fill="#d41919"
       stroke="#bf1717"
       stroke-width=".5"
       id="path3"
       style="filter:url(#filter17)" />
    <path
       d="m-53.034 5.8014h0.75c8e-3 -9e-5 0.0156-3.5e-4 0.0234 0 0.19122 8e-3 0.3824 0.0964 0.51563 0.23437l1.7109 1.7109 1.7344-1.7109c0.19922-0.17287 0.335-0.22912 0.51562-0.23437h0.75v0.75c0 0.21485-0.0257 0.41298-0.1875 0.5625l-1.7109 1.7109 1.6875 1.6875c0.14114 0.14113 0.21093 0.34009 0.21093 0.53907v0.75h-0.75c-0.19897-1e-5 -0.39793-0.0698-0.53906-0.21094l-1.7109-1.7109-1.7109 1.7109c-0.14113 0.14114-0.3401 0.21094-0.53907 0.21094h-0.75v-0.75c0-0.19897 0.0698-0.39794 0.21094-0.53907l1.7109-1.6875-1.7109-1.7109c-0.15805-0.14598-0.22737-0.35194-0.21094-0.5625v-0.75z"
       color="#bebebe"
       enable-background="new"
       opacity=".5"
       style="text-decoration-line:none;text-indent:0;text-transform:none"
       id="path4" />
  </g>
  <path
     id="deactivated-center"
     d="m56.938 1c-3.866 0-7 3.134-7 7s3.134 7 7 7 7-3.134 7-7-3.134-7-7-7z"
     fill="#000000"
     opacity=".3" />
</svg>
