<?xml version="1.0" encoding="UTF-8" standalone="no"?>
<svg
   width="81"
   height="16"
   version="1.1"
   viewBox="0 0 21.431 4.2333"
   id="svg4"
   sodipodi:docname="minimize.svg"
   inkscape:version="1.4.1 (93de688d07, 2025-03-30)"
   xmlns:inkscape="http://www.inkscape.org/namespaces/inkscape"
   xmlns:sodipodi="http://sodipodi.sourceforge.net/DTD/sodipodi-0.dtd"
   xmlns="http://www.w3.org/2000/svg"
   xmlns:svg="http://www.w3.org/2000/svg">
  <defs
     id="defs4">
    <filter
       style="color-interpolation-filters:sRGB;"
       inkscape:label="Color Shift"
       id="filter75"
       x="-0.017856758"
       y="-0.017856758"
       width="1.0357135"
       height="1.0357135">
      <feColorMatrix
         type="hueRotate"
         values="171"
         result="color1"
         id="feColorMatrix74" />
      <feColorMatrix
         type="saturate"
         values="0.559271"
         result="color2"
         id="feColorMatrix75" />
    </filter>
    <filter
       style="color-interpolation-filters:sRGB;"
       inkscape:label="Color Shift"
       id="filter77"
       x="-0.017856758"
       y="-0.017856758"
       width="1.0357135"
       height="1.0357135">
      <feColorMatrix
         type="hueRotate"
         values="171"
         result="color1"
         id="feColorMatrix76" />
      <feColorMatrix
         type="saturate"
         values="0.559271"
         result="color2"
         id="feColorMatrix77" />
    </filter>
    <filter
       style="color-interpolation-filters:sRGB;"
       inkscape:label="Color Shift"
       id="filter79"
       x="-0.017856758"
       y="-0.017856758"
       width="1.0357135"
       height="1.0357135">
      <feColorMatrix
         type="hueRotate"
         values="171"
         result="color1"
         id="feColorMatrix78" />
      <feColorMatrix
         type="saturate"
         values="0.559271"
         result="color2"
         id="feColorMatrix79" />
    </filter>
  </defs>
  <sodipodi:namedview
     id="namedview4"
     pagecolor="#ffffff"
     bordercolor="#000000"
     borderopacity="0.25"
     inkscape:showpageshadow="2"
     inkscape:pageopacity="0.0"
     inkscape:pagecheckerboard="0"
     inkscape:deskcolor="#d1d1d1"
     inkscape:zoom="11.851852"
     inkscape:cx="40.5"
     inkscape:cy="8.015625"
     inkscape:window-width="1600"
     inkscape:window-height="829"
     inkscape:window-x="0"
     inkscape:window-y="0"
     inkscape:window-maximized="1"
     inkscape:current-layer="svg4" />
  <path
     id="inactive-center"
     d="m19.381 0.26459c-1.0229 0-1.8521 0.8292-1.8521 1.8521s0.8292 1.8521 1.8521 1.8521 1.8521-0.8292 1.8521-1.8521-0.8292-1.8521-1.8521-1.8521z"
     fill="#000000"
     opacity=".3"
     stroke-width=".26458" />
  <path
     id="deactivated-center"
     d="m15.065 0.26459c-1.0229 0-1.8521 0.8292-1.8521 1.8521s0.8292 1.8521 1.8521 1.8521 1.8521-0.8292 1.8521-1.8521-0.8292-1.8521-1.8521-1.8521z"
     fill="#000000"
     opacity=".3"
     stroke-width=".26458" />
  <path
     id="active-center"
     d="m2.1167 0.26458c-1.0229 0-1.8521 0.82921-1.8521 1.8521s0.8292 1.8521 1.8521 1.8521 1.8521-0.8292 1.8521-1.8521-0.8292-1.8521-1.8521-1.8521z"
     fill="#fd7d00"
     stroke="#e47100"
     stroke-width=".13229"
     style="filter:url(#filter75)" />
  <g
     id="pressed-center"
     transform="translate(4.4011 -305.04)">
    <path
       d="m2.0316 305.31c-1.0229 0-1.8521 0.8292-1.8521 1.8521s0.8292 1.8521 1.8521 1.8521 1.8521-0.8292 1.8521-1.8521-0.8292-1.8521-1.8521-1.8521z"
       fill="#fd7d00"
       stroke="#e47100"
       stroke-width=".13229"
       id="path1"
       style="filter:url(#filter77)" />
    <path
       d="m1.2378 306.96v0.39687h1.5875v-0.39687z"
       color="#000000"
       opacity=".5"
       stroke-width=".22914"
       style="text-decoration-line:none;text-indent:0;text-transform:none"
       id="path2" />
  </g>
  <g
     id="hover-center"
     transform="translate(8.7171 -305.04)">
    <path
       d="m2.0316 305.31c-1.0229 0-1.8521 0.8292-1.8521 1.8521s0.8292 1.8521 1.8521 1.8521 1.8521-0.8292 1.8521-1.8521-0.8292-1.8521-1.8521-1.8521z"
       fill="#fd7d00"
       stroke="#e47100"
       stroke-width=".13229"
       id="path3"
       style="filter:url(#filter79)" />
    <path
       d="m1.2378 306.96v0.39687h1.5875v-0.39687z"
       color="#000000"
       opacity=".5"
       stroke-width=".22914"
       style="text-decoration-line:none;text-indent:0;text-transform:none"
       id="path4" />
  </g>
</svg>
